<?xml version="1.0" encoding="utf-8"?>
<!-- Generator: Adobe Illustrator 19.0.0, SVG Export Plug-In . SVG Version: 6.00 Build 0)  -->
<svg version="1.1" id="Layer_1" xmlns="http://www.w3.org/2000/svg" xmlns:xlink="http://www.w3.org/1999/xlink" x="0px" y="0px"
	 width="560px" height="560px" viewBox="0 0 560 560" enable-background="new 0 0 560 560" xml:space="preserve">
<g id="XMLID_113_">
	<linearGradient id="XMLID_9_" gradientUnits="userSpaceOnUse" x1="279.0789" y1="429.5407" x2="279.0789" y2="28.1046">
		<stop  offset="1.963139e-003" style="stop-color:#E1E6ED"/>
		<stop  offset="0.9968" style="stop-color:#F2F2F2"/>
	</linearGradient>
	<path id="XMLID_41_" fill="url(#XMLID_9_)" d="M552,285.6c-7.9-17.7-23-33.9-29.1-52.9c-10.5-32.4,6.3-68-0.5-101.5
		c-5.9-29.3-31.5-53-59.4-55.1c-23.2-1.8-45.2,9.8-68.2,12.8c-38.6,5-76.4-14.2-114.9-21.1c-34.7-6.2-70.8-2.3-103.3,11.3
		c-21.2,8.8-42.8,24.7-45.9,48.8c-2.4,18.5,6.9,37.7,2.4,55.7c-3.4,13.5-14.1,23.5-25.8,29.8c-11.7,6.2-24.6,9.4-36.9,14.3
		c-26.3,10.5-50.2,29.9-62.1,57c-11.8,27.1-9.4,62.3,9.9,84.6c9.2,10.6,21.4,17.7,31.6,27.2c13.3,12.4,13,32.4,20.9,48
		c8.1,16.1,22.6,26.7,37.3,35.2c18.3,10.6,39.5,15.6,60.1,13c29.4-3.7,56.1-21.2,85.6-24.1c29.9-3,59.3,9.2,88.5,17.3
		c32.3,8.9,66.5,12.9,98.8,4.8s62.4-29.8,76.3-61.9c10.4-23.9,11.2-51.8,22-75.5c6.5-14.2,16.5-27.3,17.6-43.1
		C557.6,301.4,555.5,293.4,552,285.6z"/>
</g>
<ellipse id="XMLID_28_" opacity="0.5" fill="#273B54" cx="287.8" cy="384.9" rx="100.9" ry="6"/>
<path id="XMLID_27_" fill="#F0F0F0" d="M189.4,329.1v20.6c0,2,1.6,3.6,3.6,3.6h189.7c2,0,3.6-1.6,3.6-3.6v-20.6H189.4z"/>
<path id="XMLID_26_" fill="#534B62" d="M386.2,215.1c0-2-1.6-3.6-3.6-3.6H193c-2,0-3.6,1.6-3.6,3.6v114h196.8V215.1z"/>
<rect id="XMLID_25_" x="254.4" y="353.3" fill="#D6D6D6" width="67.7" height="20.8"/>
<rect id="XMLID_24_" x="238.1" y="374.1" fill="#F0F0F0" width="99.3" height="9.7"/>
<rect id="XMLID_23_" x="254.4" y="353.3" fill="#BDBDBD" width="67.7" height="7.5"/>
<linearGradient id="XMLID_29_" gradientUnits="userSpaceOnUse" x1="244.7892" y1="344.6918" x2="330.8651" y2="195.6041">
	<stop  offset="3.422120e-002" style="stop-color:#BFC7C8"/>
	<stop  offset="0.2603" style="stop-color:#C7CECF"/>
	<stop  offset="0.8946" style="stop-color:#DBE0E1"/>
</linearGradient>
<rect id="XMLID_22_" x="199.6" y="221.7" fill="url(#XMLID_29_)" width="176.5" height="96.9"/>
<g id="XMLID_62_">
	<polygon id="XMLID_21_" fill="#534B62" points="269.1,240.7 256.8,253 244.5,240.7 239.6,245.6 251.9,257.9 239.6,270.2 
		244.5,275.1 256.8,262.8 269.1,275.1 274,270.2 261.7,257.9 274,245.6 	"/>
	<polygon id="XMLID_20_" fill="#534B62" points="336,245.6 331.1,240.7 318.8,253 306.5,240.7 301.6,245.6 313.9,257.9 301.6,270.2 
		306.5,275.1 318.8,262.8 331.1,275.1 336,270.2 323.7,257.9 	"/>
</g>
<g id="XMLID_60_">
	<path id="XMLID_19_" fill="#534B62" d="M314.1,305.1c-26-17.9-52.3-0.2-52.6,0l-3.4-4.9c0.3-0.2,30-20.3,59.4,0L314.1,305.1z"/>
</g>
<g id="XMLID_31_">
	<path id="XMLID_18_" fill="#FFFFFF" d="M449.1,169.1h-89c-2.2,0-4,1.8-4,4v57.5c0,2.2,1.8,4,4,4h10.3l-10.1,19.2l34.2-19.2h54.6
		c2.2,0,4-1.8,4-4v-57.5C453.1,170.9,451.3,169.1,449.1,169.1z"/>
	<g id="XMLID_32_">
		<g id="XMLID_48_">
			<path id="XMLID_55_" fill="#414042" d="M383.7,206c-0.3,0-0.5-0.1-0.7-0.3c-0.2-0.2-0.3-0.4-0.3-0.7v-4.4h-11.2
				c-0.3,0-0.5-0.1-0.7-0.3c-0.2-0.2-0.3-0.4-0.3-0.7v-2.6c0-0.3,0.1-0.6,0.2-0.9c0.2-0.3,0.3-0.5,0.6-0.8l11-13.8
				c0.5-0.6,1-0.9,1.5-0.9h2.7c0.3,0,0.5,0.1,0.7,0.3c0.2,0.2,0.3,0.4,0.3,0.7v14.4h3.1c0.3,0,0.5,0.1,0.7,0.3
				c0.2,0.2,0.3,0.4,0.3,0.7v2.6c0,0.3-0.1,0.5-0.3,0.7c-0.2,0.2-0.4,0.3-0.7,0.3h-3.1v4.4c0,0.3-0.1,0.5-0.3,0.7
				c-0.2,0.2-0.4,0.3-0.7,0.3H383.7z M382.8,196.2v-7.7l-6.2,7.7H382.8z"/>
			<path id="XMLID_52_" fill="#414042" d="M414.3,190.2c0,0.5,0,1,0,1.5c0,0.6,0,1.1,0,1.7c0,0.6,0,1.1,0,1.7c0,0.6,0,1.1,0,1.5
				c-0.1,1.4-0.3,2.7-0.6,3.9c-0.3,1.2-0.9,2.2-1.7,3.1c-0.8,0.9-1.7,1.6-3,2.1c-1.2,0.5-2.7,0.7-4.5,0.7c-1.8,0-3.3-0.2-4.5-0.7
				c-1.2-0.5-2.2-1.2-2.9-2.1c-0.8-0.9-1.3-1.9-1.7-3.1c-0.3-1.2-0.6-2.5-0.6-3.9c0-0.9-0.1-2-0.1-3.1c0-1.2,0-2.2,0.1-3.1
				c0.1-1.4,0.3-2.7,0.6-3.9c0.3-1.2,0.9-2.3,1.7-3.2c0.8-0.9,1.7-1.6,2.9-2.1c1.2-0.5,2.7-0.8,4.5-0.8c1.8,0,3.2,0.2,4.5,0.7
				c1.2,0.5,2.2,1.2,3,2.1c0.8,0.9,1.3,1.9,1.7,3.1C414,187.5,414.3,188.8,414.3,190.2z M399.8,196.4c0.1,1.7,0.5,3.1,1.2,4
				c0.7,1,1.9,1.4,3.6,1.4c1.7,0,2.9-0.5,3.6-1.4c0.7-0.9,1.1-2.3,1.2-4c0-0.9,0.1-1.9,0.1-3c0-1.1,0-2.1-0.1-3
				c-0.1-1.7-0.5-3.1-1.2-4c-0.7-1-1.9-1.4-3.6-1.4c-1.7,0-2.9,0.5-3.6,1.4c-0.7,0.9-1.1,2.3-1.2,4c0,0.9-0.1,1.9-0.1,3
				C399.7,194.5,399.7,195.5,399.8,196.4z"/>
			<path id="XMLID_49_" fill="#414042" d="M430.6,206c-0.3,0-0.5-0.1-0.7-0.3c-0.2-0.2-0.3-0.4-0.3-0.7v-4.4h-11.2
				c-0.3,0-0.5-0.1-0.7-0.3c-0.2-0.2-0.3-0.4-0.3-0.7v-2.6c0-0.3,0.1-0.6,0.2-0.9c0.2-0.3,0.3-0.5,0.6-0.8l11-13.8
				c0.5-0.6,1-0.9,1.5-0.9h2.7c0.3,0,0.5,0.1,0.7,0.3c0.2,0.2,0.3,0.4,0.3,0.7v14.4h3.1c0.3,0,0.5,0.1,0.7,0.3
				c0.2,0.2,0.3,0.4,0.3,0.7v2.6c0,0.3-0.1,0.5-0.3,0.7c-0.2,0.2-0.4,0.3-0.7,0.3h-3.1v4.4c0,0.3-0.1,0.5-0.3,0.7
				c-0.2,0.2-0.4,0.3-0.7,0.3H430.6z M429.6,196.2v-7.7l-6.2,7.7H429.6z"/>
		</g>
		<g id="XMLID_33_">
			<path id="XMLID_46_" fill="#414042" d="M385.7,221c0.1,0,0.2,0,0.3,0.1c0.1,0.1,0.1,0.2,0.1,0.3v0.5c0,0.1,0,0.2-0.1,0.3
				c-0.1,0.1-0.2,0.1-0.3,0.1H380c-0.1,0-0.2,0-0.3-0.1c-0.1-0.1-0.1-0.2-0.1-0.3v-9.1c0-0.1,0-0.2,0.1-0.3c0.1-0.1,0.2-0.1,0.3-0.1
				h5.6c0.1,0,0.2,0,0.3,0.1c0.1,0.1,0.1,0.2,0.1,0.3v0.5c0,0.1,0,0.2-0.1,0.3c-0.1,0.1-0.2,0.1-0.3,0.1h-4.6v3h4.3
				c0.1,0,0.2,0,0.3,0.1c0.1,0.1,0.1,0.2,0.1,0.3v0.5c0,0.1,0,0.2-0.1,0.3c-0.1,0.1-0.2,0.1-0.3,0.1h-4.3v3.1H385.7z"/>
			<path id="XMLID_43_" fill="#414042" d="M393.2,212.3c0.5,0,0.9,0.1,1.3,0.2c0.4,0.1,0.8,0.3,1.1,0.5c0.3,0.2,0.6,0.5,0.7,0.9
				s0.3,0.8,0.3,1.3c0,0.8-0.2,1.4-0.6,1.8c-0.4,0.5-0.9,0.8-1.5,1l2.1,3.7c0,0.1,0,0.1,0,0.2c0,0.1,0,0.2-0.1,0.2
				c-0.1,0.1-0.1,0.1-0.2,0.1h-0.6c-0.2,0-0.3,0-0.4-0.1c-0.1-0.1-0.2-0.2-0.2-0.2l-2-3.6h-2.4v3.6c0,0.1,0,0.2-0.1,0.3
				c-0.1,0.1-0.2,0.1-0.3,0.1h-0.6c-0.1,0-0.2,0-0.3-0.1c-0.1-0.1-0.1-0.2-0.1-0.3v-9.1c0-0.1,0-0.2,0.1-0.3
				c0.1-0.1,0.2-0.1,0.3-0.1H393.2z M390.7,217h2.4c0.7,0,1.2-0.1,1.6-0.4c0.4-0.3,0.6-0.7,0.6-1.3c0-0.6-0.2-1-0.6-1.3
				c-0.4-0.3-0.9-0.4-1.6-0.4h-2.4V217z"/>
			<path id="XMLID_40_" fill="#414042" d="M403.8,212.3c0.5,0,0.9,0.1,1.3,0.2c0.4,0.1,0.8,0.3,1.1,0.5c0.3,0.2,0.6,0.5,0.7,0.9
				s0.3,0.8,0.3,1.3c0,0.8-0.2,1.4-0.6,1.8c-0.4,0.5-0.9,0.8-1.5,1l2.1,3.7c0,0.1,0,0.1,0,0.2c0,0.1,0,0.2-0.1,0.2
				c-0.1,0.1-0.1,0.1-0.2,0.1h-0.6c-0.2,0-0.3,0-0.4-0.1c-0.1-0.1-0.2-0.2-0.2-0.2l-2-3.6h-2.4v3.6c0,0.1,0,0.2-0.1,0.3
				c-0.1,0.1-0.2,0.1-0.3,0.1h-0.6c-0.1,0-0.2,0-0.3-0.1c-0.1-0.1-0.1-0.2-0.1-0.3v-9.1c0-0.1,0-0.2,0.1-0.3
				c0.1-0.1,0.2-0.1,0.3-0.1H403.8z M401.3,217h2.4c0.7,0,1.2-0.1,1.6-0.4c0.4-0.3,0.6-0.7,0.6-1.3c0-0.6-0.2-1-0.6-1.3
				c-0.4-0.3-0.9-0.4-1.6-0.4h-2.4V217z"/>
			<path id="XMLID_37_" fill="#414042" d="M410.2,216c0-0.5,0.1-1,0.3-1.5c0.2-0.5,0.4-0.9,0.8-1.2c0.3-0.3,0.7-0.6,1.2-0.8
				c0.5-0.2,1-0.3,1.7-0.3c0.6,0,1.2,0.1,1.7,0.3c0.5,0.2,0.9,0.5,1.2,0.8c0.3,0.3,0.6,0.7,0.8,1.2c0.2,0.5,0.3,1,0.3,1.5
				c0,0.8,0,1.7,0,2.5c0,0.5-0.1,1-0.3,1.5c-0.2,0.5-0.4,0.9-0.8,1.2c-0.3,0.3-0.7,0.6-1.2,0.8c-0.5,0.2-1,0.3-1.6,0.3
				c-0.6,0-1.2-0.1-1.6-0.3c-0.5-0.2-0.9-0.5-1.2-0.8c-0.3-0.3-0.6-0.8-0.8-1.2c-0.2-0.5-0.3-1-0.3-1.5
				C410.2,217.7,410.2,216.9,410.2,216z M416.7,216.1c0-0.4-0.1-0.8-0.2-1.2c-0.1-0.3-0.3-0.6-0.5-0.8c-0.2-0.2-0.5-0.4-0.8-0.5
				c-0.3-0.1-0.6-0.2-1-0.2c-0.4,0-0.7,0.1-1,0.2c-0.3,0.1-0.6,0.3-0.8,0.5c-0.2,0.2-0.4,0.5-0.5,0.8c-0.1,0.3-0.2,0.7-0.2,1.2
				c0,0.4,0,0.8,0,1.2c0,0.4,0,0.8,0,1.2c0,0.4,0.1,0.8,0.2,1.2c0.1,0.3,0.3,0.6,0.5,0.8c0.2,0.2,0.5,0.4,0.8,0.5
				c0.3,0.1,0.6,0.2,1,0.2c0.4,0,0.7-0.1,1-0.2c0.3-0.1,0.6-0.3,0.8-0.5c0.2-0.2,0.4-0.5,0.5-0.8c0.1-0.3,0.2-0.7,0.2-1.2
				c0-0.4,0-0.8,0-1.2C416.7,216.9,416.7,216.5,416.7,216.1z"/>
			<path id="XMLID_34_" fill="#414042" d="M425.3,212.3c0.5,0,0.9,0.1,1.3,0.2c0.4,0.1,0.8,0.3,1.1,0.5c0.3,0.2,0.6,0.5,0.7,0.9
				s0.3,0.8,0.3,1.3c0,0.8-0.2,1.4-0.6,1.8c-0.4,0.5-0.9,0.8-1.5,1l2.1,3.7c0,0.1,0,0.1,0,0.2c0,0.1,0,0.2-0.1,0.2
				c-0.1,0.1-0.1,0.1-0.2,0.1h-0.6c-0.2,0-0.3,0-0.4-0.1c-0.1-0.1-0.2-0.2-0.2-0.2l-2-3.6h-2.4v3.6c0,0.1,0,0.2-0.1,0.3
				c-0.1,0.1-0.2,0.1-0.3,0.1h-0.6c-0.1,0-0.2,0-0.3-0.1c-0.1-0.1-0.1-0.2-0.1-0.3v-9.1c0-0.1,0-0.2,0.1-0.3
				c0.1-0.1,0.2-0.1,0.3-0.1H425.3z M422.8,217h2.4c0.7,0,1.2-0.1,1.6-0.4c0.4-0.3,0.6-0.7,0.6-1.3c0-0.6-0.2-1-0.6-1.3
				c-0.4-0.3-0.9-0.4-1.6-0.4h-2.4V217z"/>
		</g>
	</g>
</g>
</svg>
